<?xml version="1.0" encoding="UTF-8" standalone="no"?>
<!-- Generator: Adobe Illustrator 19.0.0, SVG Export Plug-In . SVG Version: 6.00 Build 0)  -->

<svg
   version="1.1"
   id="Layer_1"
   x="0px"
   y="0px"
   viewBox="0 0 36.559375 347.20875"
   xml:space="preserve"
   sodipodi:docname="border-side.svg"
   width="36.559376"
   height="347.20874"
   inkscape:version="1.2 (dc2aedaf03, 2022-05-15)"
   xmlns:inkscape="http://www.inkscape.org/namespaces/inkscape"
   xmlns:sodipodi="http://sodipodi.sourceforge.net/DTD/sodipodi-0.dtd"
   xmlns="http://www.w3.org/2000/svg"
   xmlns:svg="http://www.w3.org/2000/svg"><sodipodi:namedview
   id="namedview3378"
   pagecolor="#ffffff"
   bordercolor="#000000"
   borderopacity="0.25"
   inkscape:showpageshadow="2"
   inkscape:pageopacity="0.0"
   inkscape:pagecheckerboard="0"
   inkscape:deskcolor="#d1d1d1"
   showgrid="false"
   inkscape:zoom="2.3237226"
   inkscape:cx="232.81609"
   inkscape:cy="173.64379"
   inkscape:window-width="1920"
   inkscape:window-height="1001"
   inkscape:window-x="-9"
   inkscape:window-y="-9"
   inkscape:window-maximized="1"
   inkscape:current-layer="Layer_1" />
<style
   type="text/css"
   id="style2301">
	.st0{fill:#BCBEC0;}
	.st1{fill:url(#SVGID_1_);}
	.st2{fill:#582A0D;}
	.st3{opacity:0.5;}
	.st4{fill:url(#SVGID_2_);}
	.st5{fill:url(#SVGID_3_);}
	.st6{fill:url(#SVGID_4_);}
	.st7{fill:url(#SVGID_5_);}
	.st8{fill:url(#SVGID_6_);}
	.st9{fill:url(#SVGID_7_);}
	.st10{fill:url(#SVGID_8_);}
	.st11{fill:url(#SVGID_9_);}
	.st12{fill:url(#SVGID_10_);}
	.st13{fill:url(#SVGID_11_);}
	.st14{fill:url(#SVGID_12_);}
	.st15{fill:url(#SVGID_13_);}
	.st16{fill:url(#SVGID_14_);}
	.st17{fill:url(#SVGID_15_);}
	.st18{fill:url(#SVGID_16_);}
	.st19{fill:url(#SVGID_17_);}
	.st20{fill:url(#SVGID_18_);}
	.st21{fill:url(#SVGID_19_);}
	.st22{fill:url(#SVGID_20_);}
	.st23{fill:url(#SVGID_21_);}
	.st24{fill:url(#SVGID_22_);}
	.st25{fill:url(#SVGID_23_);}
	.st26{fill:url(#SVGID_24_);}
	.st27{fill:url(#SVGID_25_);}
	.st28{fill:url(#SVGID_26_);}
	.st29{fill:url(#SVGID_27_);}
	.st30{fill:url(#SVGID_28_);}
	.st31{fill:url(#SVGID_29_);}
	.st32{fill:url(#SVGID_30_);}
	.st33{fill:url(#SVGID_31_);}
	.st34{fill:url(#SVGID_32_);}
	.st35{fill:url(#SVGID_33_);}
	.st36{fill:url(#SVGID_34_);}
	.st37{fill:url(#SVGID_35_);}
	.st38{fill:url(#SVGID_36_);}
	.st39{fill:url(#SVGID_37_);}
	.st40{fill:url(#SVGID_38_);}
	.st41{fill:url(#SVGID_39_);}
	.st42{fill:url(#SVGID_40_);}
	.st43{fill:url(#SVGID_41_);}
	.st44{fill:url(#SVGID_42_);}
	.st45{fill:url(#SVGID_43_);}
	.st46{fill:#F5BC81;}
	.st47{fill:#BF692D;}
	.st48{fill:url(#SVGID_44_);}
	.st49{fill:url(#SVGID_45_);}
	.st50{fill:url(#SVGID_46_);}
	.st51{fill:url(#SVGID_47_);}
	.st52{fill:url(#SVGID_48_);}
	.st53{fill:url(#SVGID_49_);}
	.st54{fill:url(#SVGID_50_);}
	.st55{fill:url(#SVGID_51_);}
	.st56{fill:url(#SVGID_52_);}
	.st57{fill:url(#SVGID_53_);}
	.st58{fill:url(#SVGID_54_);}
	.st59{fill:url(#SVGID_55_);}
	.st60{fill:url(#SVGID_56_);}
	.st61{fill:url(#SVGID_57_);}
	.st62{fill:url(#SVGID_58_);}
	.st63{fill:url(#SVGID_59_);}
	.st64{fill:url(#SVGID_60_);}
	.st65{fill:url(#SVGID_61_);}
	.st66{fill:url(#SVGID_62_);}
	.st67{fill:url(#SVGID_63_);}
	.st68{fill:url(#SVGID_64_);}
	.st69{fill:url(#SVGID_65_);}
	.st70{fill:#7A7479;}
	.st71{fill:url(#SVGID_66_);}
	.st72{fill:url(#SVGID_67_);}
	.st73{fill:url(#SVGID_68_);}
	.st74{filter:url(#Adobe_OpacityMaskFilter);}
	.st75{filter:url(#Adobe_OpacityMaskFilter_1_);}
	.st76{mask:url(#SVGID_69_);fill:url(#SVGID_70_);}
	.st77{opacity:0.5;fill:url(#SVGID_71_);}
	.st78{filter:url(#Adobe_OpacityMaskFilter_2_);}
	.st79{filter:url(#Adobe_OpacityMaskFilter_3_);}
	.st80{mask:url(#SVGID_72_);fill:url(#SVGID_73_);}
	.st81{opacity:0.5;fill:url(#SVGID_74_);}
	.st82{filter:url(#Adobe_OpacityMaskFilter_4_);}
	.st83{filter:url(#Adobe_OpacityMaskFilter_5_);}
	.st84{mask:url(#SVGID_75_);fill:url(#SVGID_76_);}
	.st85{opacity:0.5;fill:url(#SVGID_77_);}
	.st86{filter:url(#Adobe_OpacityMaskFilter_6_);}
	.st87{filter:url(#Adobe_OpacityMaskFilter_7_);}
	.st88{mask:url(#SVGID_78_);fill:url(#SVGID_79_);}
	.st89{opacity:0.5;fill:url(#SVGID_80_);}
</style>




<g
   id="g2407"
   transform="translate(-9.665625,-1.7912525)">
	
		<linearGradient
   id="SVGID_12_"
   gradientUnits="userSpaceOnUse"
   x1="41.3923"
   y1="452.49741"
   x2="59.1539"
   y2="452.49741"
   gradientTransform="matrix(0.9999,0.0132,-0.0132,0.9999,-18.4992,-277.8467)">
		<stop
   offset="0"
   style="stop-color:#9E5E31"
   id="stop2398" />
		<stop
   offset="1"
   style="stop-color:#7C2907"
   id="stop2400" />
	</linearGradient>
	<path
   class="st14"
   d="m 12.7,6.9 c 0,0 4.9,308.1 8.1,337.6 0.3,3.1 4.3,4.3 10.7,4 6.4,-0.3 7.1,-3.9 7,-7.1 -0.7,-17.3 -2.1,-127.6 -2,-158.7 0.1,-31 2.6,-115.5 2.7,-125.6 C 39.3,46.5 42,16 42.4,10.9 42.8,5.8 44.7,2.9 38.4,2.3 32.1,1.7 13.2,2.9 12.7,6.9 Z"
   id="path2403"
   style="fill:url(#SVGID_12_)" />
	<path
   class="st2"
   d="m 29.1,349 c -7,-0.1 -8.7,-2.5 -8.9,-4.5 C 17,315.3 12.2,9.9 12.1,6.9 12.7,2.4 30.5,1.7 35.3,1.8 c 1.2,0 2.3,0.1 3.1,0.1 2.2,0.2 3.6,0.7 4.3,1.6 1,1.2 0.8,2.9 0.5,5 -0.1,0.7 -0.2,1.5 -0.3,2.5 -0.1,0.7 -0.1,1.8 -0.3,3.3 -0.8,9.2 -2.8,33.7 -2.9,42.9 0,3.3 -0.3,14.8 -0.7,29.2 -0.8,30.1 -1.9,75.5 -2,96.4 -0.1,31.6 1.3,141.9 2,158.6 0.1,3.1 -0.5,7.2 -7.5,7.5 -0.8,0.1 -1.6,0.1 -2.4,0.1 z M 35.3,2.7 C 26.5,2.6 13.6,4.2 13.2,6.9 c 0.1,3 4.9,308.3 8.1,337.5 0.2,2.9 4.4,3.6 7.8,3.6 0.7,0 1.5,0 2.3,-0.1 5.9,-0.3 6.6,-3.5 6.5,-6.6 -0.6,-16.7 -2.1,-127.1 -2,-158.7 0.1,-20.9 1.2,-66.3 2,-96.4 0.4,-14.5 0.7,-25.9 0.7,-29.2 0.1,-9.3 2.1,-33.7 2.9,-43 0.1,-1.5 0.2,-2.6 0.3,-3.3 0.1,-0.9 0.2,-1.8 0.3,-2.6 0.3,-2 0.5,-3.4 -0.3,-4.3 -0.6,-0.7 -1.7,-1 -3.6,-1.2 -0.7,0.1 -1.7,0.1 -2.9,0.1 z"
   id="path2405" />
</g>
<g
   class="st3"
   id="g2416"
   transform="translate(-9.665625,-1.7912525)">
	
		<linearGradient
   id="SVGID_13_"
   gradientUnits="userSpaceOnUse"
   x1="34.921501"
   y1="452.49811"
   x2="65.200897"
   y2="452.49811"
   gradientTransform="matrix(0.9999,0.0132,-0.0132,0.9999,-18.4992,-277.8467)">
		<stop
   offset="0"
   style="stop-color:#9E5E31"
   id="stop2409" />
		<stop
   offset="1"
   style="stop-color:#7C2907"
   id="stop2411" />
	</linearGradient>
	<path
   class="st15"
   d="M 38.5,341.4 C 37.8,324.1 36.4,213.8 36.5,182.7 36.6,151.7 39.1,67.2 39.2,57.1 39.3,46.5 42,16 42.4,10.9 c 0.4,-5.1 2.3,-8 -4,-8.6 -1.2,-0.1 -2.9,-0.2 -4.8,-0.1 0,0.4 0,0.9 0,1.3 -0.1,1.4 -0.3,2.8 -0.7,4.1 -0.4,1.1 -0.9,2.2 -1.9,3 -1.1,0.9 -2.6,1.2 -4,1.4 -1.5,0.1 -3.1,0.1 -4.6,-0.1 0,0 0,0 0,0 -0.3,-1.2 -0.2,-2.3 -0.4,-3.5 0,-0.1 -0.2,-1 -0.3,-0.9 -0.2,0.1 -0.4,0.2 -0.6,0.3 -0.4,0.2 -0.7,0.4 -1,0.7 -0.5,0.4 -0.9,0.9 -1.3,1.3 -0.3,0.3 -0.7,0.5 -1.2,0.5 -0.5,0 -1,-0.2 -1.5,-0.5 -0.8,-0.5 -1.5,-1.1 -2.2,-1.7 -0.4,-0.3 -0.7,-0.7 -1.1,-1 0,1.9 0.3,16.2 0.6,38.1 1,-2 1.9,-3.4 2.4,-3.4 1.8,0 3.3,12.5 3.3,12.5 0,0 2.5,-17.3 5.8,-7.3 3.1,-17.9 7.4,-21.5 7.7,-7.4 0.3,14.1 2.4,22.5 2.2,34.5 -0.2,12 -3.4,23.6 -5,32.7 -1.7,9.1 -0.9,46.2 -0.7,66.9 0.1,20.7 -4.7,33.3 -0.4,54.8 4.3,21.6 4,41 2.8,58.7 -1.2,17.7 -2.5,13.5 -4.7,0.4 -0.7,14.8 -8.4,-1.4 -9,-25.4 0,-1.4 -0.2,-2.7 -0.3,-4.1 1.1,43.4 2.2,77.5 3.2,86.4 0.3,3.1 4.3,4.3 10.7,4 6.5,-0.4 7.2,-3.9 7.1,-7.1 z"
   id="path2414"
   style="fill:url(#SVGID_13_)" />
</g>
<g
   id="g2537"
   transform="translate(-9.665625,-1.7912525)">
	
		<linearGradient
   id="SVGID_14_"
   gradientUnits="userSpaceOnUse"
   x1="56.441399"
   y1="365.95261"
   x2="57.562698"
   y2="314.52679"
   gradientTransform="matrix(0.9999,0.0132,-0.0132,0.9999,-18.4992,-277.8467)">
		<stop
   offset="0"
   style="stop-color:#7C2907"
   id="stop2418" />
		<stop
   offset="1"
   style="stop-color:#9E5E31"
   id="stop2420" />
	</linearGradient>
	<path
   class="st16"
   d="m 33.2,37.5 c 0,-0.3 -0.6,0.2 -0.6,0.4 -0.5,8 0.4,15.9 1.2,23.8 0.9,9.1 1,17.9 -0.3,26.9 -0.1,0.7 0.8,-0.2 0.9,-0.5 C 38.5,71.5 33,54.2 33.2,37.5 Z"
   id="path2423"
   style="fill:url(#SVGID_14_)" />
	
		<linearGradient
   id="SVGID_15_"
   gradientUnits="userSpaceOnUse"
   x1="47.335499"
   y1="329.43109"
   x2="47.6007"
   y2="317.2652"
   gradientTransform="matrix(0.9999,0.0132,-0.0132,0.9999,-18.4992,-277.8467)">
		<stop
   offset="0"
   style="stop-color:#7C2907"
   id="stop2425" />
		<stop
   offset="1"
   style="stop-color:#9E5E31"
   id="stop2427" />
	</linearGradient>
	<path
   class="st17"
   d="m 24.7,40.1 c 0,-0.3 -0.6,0.2 -0.6,0.4 -0.3,3.8 0,7.8 0.4,11.6 0.1,0.5 0.8,-0.3 0.8,-0.6 0.1,-3.8 -0.3,-7.6 -0.6,-11.4 z"
   id="path2430"
   style="fill:url(#SVGID_15_)" />
	
		<linearGradient
   id="SVGID_16_"
   gradientUnits="userSpaceOnUse"
   x1="40.743401"
   y1="341.45511"
   x2="41.393501"
   y2="311.64059"
   gradientTransform="matrix(0.9999,0.0132,-0.0132,0.9999,-18.4992,-277.8467)">
		<stop
   offset="0"
   style="stop-color:#7C2907"
   id="stop2432" />
		<stop
   offset="1"
   style="stop-color:#9E5E31"
   id="stop2434" />
	</linearGradient>
	<path
   class="st18"
   d="m 17,34.3 c 0,-0.3 -0.6,0.2 -0.5,0.4 0.7,9.7 1,19.6 2.7,29.3 0.1,0.5 0.9,-0.3 0.8,-0.6 C 18.8,53.7 18.3,44 17,34.3 Z"
   id="path2437"
   style="fill:url(#SVGID_16_)" />
	
		<linearGradient
   id="SVGID_17_"
   gradientUnits="userSpaceOnUse"
   x1="45.756802"
   y1="293.5484"
   x2="46.001999"
   y2="282.3049"
   gradientTransform="matrix(0.9999,0.0132,-0.0132,0.9999,-18.4992,-277.8467)">
		<stop
   offset="0"
   style="stop-color:#7C2907"
   id="stop2439" />
		<stop
   offset="1"
   style="stop-color:#9E5E31"
   id="stop2441" />
	</linearGradient>
	<path
   class="st19"
   d="m 23.5,5.1 c 0,-0.3 -0.4,0.2 -0.5,0.3 -0.6,3.5 0,7.2 0.4,10.7 0.1,0.5 0.8,-0.3 0.8,-0.6 0,-3.4 -0.5,-6.9 -0.7,-10.4 z"
   id="path2444"
   style="fill:url(#SVGID_17_)" />
	
		<linearGradient
   id="SVGID_18_"
   gradientUnits="userSpaceOnUse"
   x1="49.5583"
   y1="291.60779"
   x2="49.726398"
   y2="283.89859"
   gradientTransform="matrix(0.9999,0.0132,-0.0132,0.9999,-18.4992,-277.8467)">
		<stop
   offset="0"
   style="stop-color:#7C2907"
   id="stop2446" />
		<stop
   offset="1"
   style="stop-color:#9E5E31"
   id="stop2448" />
	</linearGradient>
	<path
   class="st20"
   d="m 27.1,6.8 c 0,-0.4 -0.7,0.2 -0.6,0.5 0.2,2.4 0.7,4.7 1,7 0.1,0.4 0.7,-0.3 0.7,-0.5 -0.2,-2.4 -0.8,-4.7 -1.1,-7 z"
   id="path2451"
   style="fill:url(#SVGID_18_)" />
	
		<linearGradient
   id="SVGID_19_"
   gradientUnits="userSpaceOnUse"
   x1="40.7869"
   y1="415.6994"
   x2="41.981201"
   y2="360.92529"
   gradientTransform="matrix(0.9999,0.0132,-0.0132,0.9999,-18.4992,-277.8467)">
		<stop
   offset="0"
   style="stop-color:#7C2907"
   id="stop2453" />
		<stop
   offset="1"
   style="stop-color:#9E5E31"
   id="stop2455" />
	</linearGradient>
	<path
   class="st21"
   d="m 16.3,83.6 c -0.1,-0.3 -0.5,0.2 -0.5,0.4 0.9,9 3.8,17.7 3.9,26.7 0.1,9.2 -2.4,18.3 -2.4,27.5 0,0.5 0.7,-0.3 0.8,-0.5 1.5,-8.7 2.5,-17.8 2.7,-26.6 0.1,-9.2 -2.6,-18.4 -4.5,-27.5 z"
   id="path2458"
   style="fill:url(#SVGID_19_)" />
	
		<linearGradient
   id="SVGID_20_"
   gradientUnits="userSpaceOnUse"
   x1="44.916599"
   y1="504.13629"
   x2="48.1759"
   y2="354.6546"
   gradientTransform="matrix(0.9999,0.0132,-0.0132,0.9999,-18.4992,-277.8467)">
		<stop
   offset="0"
   style="stop-color:#7C2907"
   id="stop2460" />
		<stop
   offset="1"
   style="stop-color:#9E5E31"
   id="stop2462" />
	</linearGradient>
	<path
   class="st22"
   d="m 24.3,77.5 c 0,-0.2 -0.3,0.1 -0.3,0.2 -2.7,11.7 -1.9,23.8 -1.1,35.6 0.9,12.7 1.6,25.2 0.4,37.9 -1.3,13.1 -1.9,26.2 -2.6,39.3 -0.7,12 -2.6,24.2 -0.7,36.2 0.1,0.6 1.1,-0.4 1.1,-0.8 -1.5,-12.4 0.2,-24.7 0.9,-37.1 0.8,-13.1 1.4,-26.2 2.7,-39.3 2.2,-24.1 -4,-48.1 -0.4,-72 z"
   id="path2465"
   style="fill:url(#SVGID_20_)" />
	
		<linearGradient
   id="SVGID_21_"
   gradientUnits="userSpaceOnUse"
   x1="54.1063"
   y1="457.4614"
   x2="54.756199"
   y2="427.6543"
   gradientTransform="matrix(0.9999,0.0132,-0.0132,0.9999,-18.4992,-277.8467)">
		<stop
   offset="0"
   style="stop-color:#7C2907"
   id="stop2467" />
		<stop
   offset="1"
   style="stop-color:#9E5E31"
   id="stop2469" />
	</linearGradient>
	<path
   class="st23"
   d="m 30.9,150.6 c 0,-0.2 -0.4,0.1 -0.4,0.3 -0.5,9.7 -1.9,19.6 -1.3,29.3 0,0.5 0.8,-0.3 0.8,-0.5 0.8,-9.7 1.1,-19.5 0.9,-29.1 z"
   id="path2472"
   style="fill:url(#SVGID_21_)" />
	
		<linearGradient
   id="SVGID_22_"
   gradientUnits="userSpaceOnUse"
   x1="51.5224"
   y1="514.42438"
   x2="52.276402"
   y2="479.8432"
   gradientTransform="matrix(0.9999,0.0132,-0.0132,0.9999,-18.4992,-277.8467)">
		<stop
   offset="0"
   style="stop-color:#7C2907"
   id="stop2474" />
		<stop
   offset="1"
   style="stop-color:#9E5E31"
   id="stop2476" />
	</linearGradient>
	<path
   class="st24"
   d="m 27,202.7 c 0,-0.3 -0.5,0.2 -0.5,0.3 -0.6,11.3 0.3,22.6 -1,33.9 -0.1,0.6 0.7,-0.1 0.8,-0.4 2.3,-10.9 1.1,-22.7 0.7,-33.8 z"
   id="path2479"
   style="fill:url(#SVGID_22_)" />
	
		<linearGradient
   id="SVGID_23_"
   gradientUnits="userSpaceOnUse"
   x1="57.217701"
   y1="545.02832"
   x2="58.1343"
   y2="502.98929"
   gradientTransform="matrix(0.9999,0.0132,-0.0132,0.9999,-18.4992,-277.8467)">
		<stop
   offset="0"
   style="stop-color:#7C2907"
   id="stop2481" />
		<stop
   offset="1"
   style="stop-color:#9E5E31"
   id="stop2483" />
	</linearGradient>
	<path
   class="st25"
   d="m 31.2,225.9 c 0,-0.3 -0.4,0.1 -0.5,0.2 -0.5,6.6 0,13.1 0.7,19.7 0.7,7.3 1.3,14.6 1.7,22 0,0.4 0.7,-0.2 0.7,-0.5 1,-13.8 -3.1,-27.5 -2.6,-41.4 z"
   id="path2486"
   style="fill:url(#SVGID_23_)" />
	
		<linearGradient
   id="SVGID_24_"
   gradientUnits="userSpaceOnUse"
   x1="52.8783"
   y1="589.39258"
   x2="54.223701"
   y2="527.68781"
   gradientTransform="matrix(0.9999,0.0132,-0.0132,0.9999,-18.4992,-277.8467)">
		<stop
   offset="0"
   style="stop-color:#7C2907"
   id="stop2488" />
		<stop
   offset="1"
   style="stop-color:#9E5E31"
   id="stop2490" />
	</linearGradient>
	<path
   class="st26"
   d="m 27.1,281.5 c -0.6,-10.3 -0.8,-20.6 -0.5,-30.9 0,-0.3 -0.4,0 -0.5,0.2 -0.7,10.1 -0.5,20.1 0,30.2 0.5,10.3 0.9,20.9 2.4,31.1 0.1,0.5 0.8,-0.3 0.8,-0.6 -0.4,-10 -1.6,-20 -2.2,-30 z"
   id="path2493"
   style="fill:url(#SVGID_24_)" />
	
		<linearGradient
   id="SVGID_25_"
   gradientUnits="userSpaceOnUse"
   x1="60.0065"
   y1="597.34668"
   x2="60.2756"
   y2="585.00873"
   gradientTransform="matrix(0.9999,0.0132,-0.0132,0.9999,-18.4992,-277.8467)">
		<stop
   offset="0"
   style="stop-color:#7C2907"
   id="stop2495" />
		<stop
   offset="1"
   style="stop-color:#9E5E31"
   id="stop2497" />
	</linearGradient>
	<path
   class="st27"
   d="m 33.9,308 c 0,-0.3 -0.6,0.2 -0.6,0.4 -0.2,3.9 -0.2,7.9 0.2,11.7 0,0.5 0.8,-0.3 0.8,-0.5 0.2,-3.9 -0.3,-7.8 -0.4,-11.6 z"
   id="path2500"
   style="fill:url(#SVGID_25_)" />
	
		<linearGradient
   id="SVGID_26_"
   gradientUnits="userSpaceOnUse"
   x1="50.105801"
   y1="587.15228"
   x2="50.444599"
   y2="571.61249"
   gradientTransform="matrix(0.9999,0.0132,-0.0132,0.9999,-18.4992,-277.8467)">
		<stop
   offset="0"
   style="stop-color:#7C2907"
   id="stop2502" />
		<stop
   offset="1"
   style="stop-color:#9E5E31"
   id="stop2504" />
	</linearGradient>
	<path
   class="st28"
   d="m 23.6,294.4 c 0,-0.3 -0.5,0.2 -0.5,0.3 0.4,5 0.7,10 1.3,15 0.1,0.4 0.8,-0.3 0.7,-0.6 -0.2,-4.8 -0.9,-9.8 -1.5,-14.7 z"
   id="path2507"
   style="fill:url(#SVGID_26_)" />
	
		<linearGradient
   id="SVGID_27_"
   gradientUnits="userSpaceOnUse"
   x1="52.598598"
   y1="602.15631"
   x2="52.805599"
   y2="592.66272"
   gradientTransform="matrix(0.9999,0.0132,-0.0132,0.9999,-18.4992,-277.8467)">
		<stop
   offset="0"
   style="stop-color:#7C2907"
   id="stop2509" />
		<stop
   offset="1"
   style="stop-color:#9E5E31"
   id="stop2511" />
	</linearGradient>
	<path
   class="st29"
   d="m 26.4,315.5 c 0,-0.3 -0.6,0.2 -0.5,0.4 0.1,2.9 0.1,5.9 0.3,8.8 0,0.4 0.7,-0.3 0.7,-0.6 -0.1,-2.8 -0.2,-5.7 -0.5,-8.6 z"
   id="path2514"
   style="fill:url(#SVGID_27_)" />
	
		<linearGradient
   id="SVGID_28_"
   gradientUnits="userSpaceOnUse"
   x1="50.004501"
   y1="603.91852"
   x2="50.314999"
   y2="589.67712"
   gradientTransform="matrix(0.9999,0.0132,-0.0132,0.9999,-18.4992,-277.8467)">
		<stop
   offset="0"
   style="stop-color:#7C2907"
   id="stop2516" />
		<stop
   offset="1"
   style="stop-color:#9E5E31"
   id="stop2518" />
	</linearGradient>
	<path
   class="st30"
   d="m 23.8,312.5 c 0,-0.3 -0.5,0.2 -0.5,0.3 -0.1,4.5 -0.1,9.1 0.2,13.7 0,0.5 0.8,-0.3 0.8,-0.6 0,-4.4 -0.4,-8.9 -0.5,-13.4 z"
   id="path2521"
   style="fill:url(#SVGID_28_)" />
	
		<linearGradient
   id="SVGID_29_"
   gradientUnits="userSpaceOnUse"
   x1="55.597698"
   y1="625.40417"
   x2="55.824902"
   y2="614.9859"
   gradientTransform="matrix(0.9999,0.0132,-0.0132,0.9999,-18.4992,-277.8467)">
		<stop
   offset="0"
   style="stop-color:#7C2907"
   id="stop2523" />
		<stop
   offset="1"
   style="stop-color:#9E5E31"
   id="stop2525" />
	</linearGradient>
	<path
   class="st31"
   d="m 28.6,337.9 c 0,-0.3 -0.5,0.2 -0.5,0.3 0.2,3.3 0.3,6.7 1,9.9 0.1,0.4 0.7,-0.3 0.6,-0.5 0,-3.2 -0.6,-6.5 -1.1,-9.7 z"
   id="path2528"
   style="fill:url(#SVGID_29_)" />
	
		<linearGradient
   id="SVGID_30_"
   gradientUnits="userSpaceOnUse"
   x1="60.023499"
   y1="624.10938"
   x2="60.143799"
   y2="618.5921"
   gradientTransform="matrix(0.9999,0.0132,-0.0132,0.9999,-18.4992,-277.8467)">
		<stop
   offset="0"
   style="stop-color:#7C2907"
   id="stop2530" />
		<stop
   offset="1"
   style="stop-color:#9E5E31"
   id="stop2532" />
	</linearGradient>
	<path
   class="st32"
   d="m 33.6,341.6 c 0,-0.3 -0.6,0.2 -0.6,0.4 0,1.6 0,3.2 0,4.9 0,0.3 0.6,-0.2 0.6,-0.4 0.2,-1.6 0,-3.3 0,-4.9 z"
   id="path2535"
   style="fill:url(#SVGID_30_)" />
</g>





<linearGradient
   id="SVGID_43_"
   gradientUnits="userSpaceOnUse"
   x1="33.331501"
   y1="300.41879"
   x2="67.227798"
   y2="300.41879"
   gradientTransform="matrix(0.9999,0.0132,-0.0132,0.9999,-28.164825,-279.63795)">
	<stop
   offset="0"
   style="stop-color:#9E5E31"
   id="stop2637" />
	<stop
   offset="1"
   style="stop-color:#7C2907"
   id="stop2639" />
</linearGradient>


<linearGradient
   id="SVGID_44_"
   gradientUnits="userSpaceOnUse"
   x1="42.9062"
   y1="607.70038"
   x2="71.850098"
   y2="607.70038"
   gradientTransform="matrix(0.9999,0.0132,-0.0132,0.9999,-28.164825,-279.63795)">
	<stop
   offset="0"
   style="stop-color:#9E5E31"
   id="stop2734" />
	<stop
   offset="1"
   style="stop-color:#7C2907"
   id="stop2736" />
</linearGradient>

<linearGradient
   id="SVGID_45_"
   gradientUnits="userSpaceOnUse"
   x1="456.9631"
   y1="595.49847"
   x2="491.9964"
   y2="595.49847"
   gradientTransform="matrix(0.9999,0.0132,-0.0132,0.9999,-18.4992,-277.8467)">
	<stop
   offset="0"
   style="stop-color:#9E5E31"
   id="stop2741" />
	<stop
   offset="1"
   style="stop-color:#7C2907"
   id="stop2743" />
</linearGradient>


<linearGradient
   id="SVGID_46_"
   gradientUnits="userSpaceOnUse"
   x1="463.7106"
   y1="301.39139"
   x2="503.6824"
   y2="301.39139"
   gradientTransform="matrix(0.9999,0.0132,-0.0132,0.9999,-18.4992,-277.8467)">
	<stop
   offset="0"
   style="stop-color:#9E5E31"
   id="stop2838" />
	<stop
   offset="1"
   style="stop-color:#7C2907"
   id="stop2840" />
</linearGradient>






<defs
   id="defs3046">
	<filter
   id="Adobe_OpacityMaskFilter"
   filterUnits="userSpaceOnUse"
   x="147.5"
   y="13.4"
   width="236.5"
   height="8.3999996">
		<feFlood
   result="back"
   id="feFlood3041" />
		<feBlend
   in="SourceGraphic"
   in2="back"
   mode="normal"
   id="feBlend3043" />
	</filter>
</defs>
<mask
   maskUnits="userSpaceOnUse"
   x="147.5"
   y="13.4"
   width="236.5"
   height="8.4"
   id="mask3069">
	<g
   class="st74"
   id="g3067">
		<defs
   id="defs3053">
			<filter
   id="Adobe_OpacityMaskFilter_1_"
   filterUnits="userSpaceOnUse"
   x="147.5"
   y="13.4"
   width="236.5"
   height="8.3999996">
				<feFlood
   result="back"
   id="feFlood3048" />
				<feBlend
   in="SourceGraphic"
   in2="back"
   mode="normal"
   id="feBlend3050" />
			</filter>
		</defs>
		<mask
   maskUnits="userSpaceOnUse"
   x="147.5"
   y="13.4"
   width="236.5"
   height="8.4"
   id="SVGID_69_">
			<g
   class="st75"
   id="g3055">
			</g>
		</mask>
		
			<radialGradient
   id="SVGID_70_"
   cx="270.8587"
   cy="286.0087"
   r="75.5355"
   gradientTransform="matrix(1.1074,0.0323,-0.0379,0.9995,-23.275,-277.9287)"
   gradientUnits="userSpaceOnUse">
			<stop
   offset="0.2507"
   style="stop-color:#FFFFFF"
   id="stop3058" />
			<stop
   offset="0.5928"
   style="stop-color:#FFFFFF"
   id="stop3060" />
			<stop
   offset="1"
   style="stop-color:#000000"
   id="stop3062" />
		</radialGradient>
		<path
   class="st76"
   d="m 383.7,19.5 c -19.7,-1.8 -39.6,-2.7 -59.4,-4 -20.3,-1.3 -40.7,-2.3 -61.1,-2.1 -9.6,0.1 -19.1,0.9 -28.7,1.2 -9.9,0.3 -19.8,0.2 -29.7,0.1 -9.7,-0.2 -19.4,-0.4 -29.1,0 -9.3,0.4 -18.3,0.4 -27.6,-0.1 -0.4,0 -1,0.8 -0.5,0.9 8,2.4 17.3,1.7 25.6,1.5 9.6,-0.2 19.2,0.1 28.8,0.3 9.9,0.2 19.7,0.3 29.6,0.1 10,-0.2 19.9,-1 29.9,-1.1 19.9,-0.3 39.8,0.9 59.6,2.2 20.3,1.4 40.8,3.6 61.2,3.4 1,-0.1 2.5,-2.3 1.4,-2.4 z"
   mask="url(#SVGID_69_)"
   id="path3065" />
	</g>
</mask>
<radialGradient
   id="SVGID_71_"
   cx="270.8587"
   cy="286.0087"
   r="75.5355"
   gradientTransform="matrix(1.1074,0.0323,-0.0379,0.9995,-23.275,-277.9287)"
   gradientUnits="userSpaceOnUse">
	<stop
   offset="0.2507"
   style="stop-color:#FFFFFF"
   id="stop3071" />
	<stop
   offset="0.5928"
   style="stop-color:#E0B7AA"
   id="stop3073" />
	<stop
   offset="1"
   style="stop-color:#E0B7AA"
   id="stop3075" />
</radialGradient>

<defs
   id="defs3085">
	<filter
   id="Adobe_OpacityMaskFilter_2_"
   filterUnits="userSpaceOnUse"
   x="15.8"
   y="65.900002"
   width="10.4"
   height="204.3">
		<feFlood
   result="back"
   id="feFlood3080" />
		<feBlend
   in="SourceGraphic"
   in2="back"
   mode="normal"
   id="feBlend3082" />
	</filter>
</defs>
<mask
   maskUnits="userSpaceOnUse"
   x="15.8"
   y="65.9"
   width="10.4"
   height="204.3"
   id="mask3108">
	<g
   class="st78"
   id="g3106">
		<defs
   id="defs3092">
			<filter
   id="Adobe_OpacityMaskFilter_3_"
   filterUnits="userSpaceOnUse"
   x="15.8"
   y="65.900002"
   width="10.4"
   height="204.3">
				<feFlood
   result="back"
   id="feFlood3087" />
				<feBlend
   in="SourceGraphic"
   in2="back"
   mode="normal"
   id="feBlend3089" />
			</filter>
		</defs>
		<mask
   maskUnits="userSpaceOnUse"
   x="15.8"
   y="65.9"
   width="10.4"
   height="204.3"
   id="SVGID_72_">
			<g
   class="st79"
   id="g3094">
			</g>
		</mask>
		
			<radialGradient
   id="SVGID_73_"
   cx="42.335999"
   cy="445.23361"
   r="72.319099"
   gradientTransform="matrix(1.108,0.0122,-0.0156,0.9999,-18.8192,-277.675)"
   gradientUnits="userSpaceOnUse">
			<stop
   offset="0.2507"
   style="stop-color:#FFFFFF"
   id="stop3097" />
			<stop
   offset="0.5928"
   style="stop-color:#FFFFFF"
   id="stop3099" />
			<stop
   offset="1"
   style="stop-color:#000000"
   id="stop3101" />
		</radialGradient>
		<path
   class="st80"
   d="m 23.3,243.9 c -0.8,-8.2 -1.2,-16.4 -1.4,-24.6 -0.5,-16.5 -0.3,-33.1 -0.4,-49.7 -0.1,-17 -1.2,-33.9 -2.1,-50.9 -0.9,-17.6 -1.3,-35.1 -2.1,-52.7 0,-0.5 -0.8,0.3 -0.8,0.5 -2.5,34.6 1.8,69.4 2.1,104.1 0.1,17 -0.2,33.9 0.3,50.9 0.2,8.2 0.7,16.4 1.4,24.6 0.7,7.7 0.9,16.5 3.9,23.8 0.4,1 2,-1.2 2,-1.8 C 26,260 24.1,251.9 23.3,243.9 Z"
   mask="url(#SVGID_72_)"
   id="path3104" />
	</g>
</mask>
<radialGradient
   id="SVGID_74_"
   cx="42.335999"
   cy="445.23361"
   r="72.319099"
   gradientTransform="matrix(1.108,0.0122,-0.0156,0.9999,-28.484825,-279.46625)"
   gradientUnits="userSpaceOnUse">
	<stop
   offset="0.2507"
   style="stop-color:#FFFFFF"
   id="stop3110" />
	<stop
   offset="0.5928"
   style="stop-color:#E0B7AA"
   id="stop3112" />
	<stop
   offset="1"
   style="stop-color:#E0B7AA"
   id="stop3114" />
</radialGradient>
<path
   class="st81"
   d="m 13.634375,242.10875 c -0.8,-8.2 -1.2,-16.4 -1.4,-24.6 -0.5,-16.5 -0.3,-33.1 -0.4,-49.7 -0.1,-17 -1.2,-33.9 -2.1,-50.9 -0.9,-17.600002 -1.3,-35.100002 -2.1,-52.700002 0,-0.5 -0.8,0.3 -0.8,0.5 -2.5,34.6 1.8,69.400002 2.1,104.100002 0.1,17 -0.2,33.9 0.3,50.9 0.2,8.2 0.7,16.4 1.4,24.6 0.7,7.7 0.9,16.5 3.9,23.8 0.4,1 2,-1.2 2,-1.8 -0.2,-8.1 -2.1,-16.2 -2.9,-24.2 z"
   id="path3117"
   style="fill:url(#SVGID_74_)" />
<defs
   id="defs3124">
	<filter
   id="Adobe_OpacityMaskFilter_4_"
   filterUnits="userSpaceOnUse"
   x="438.39999"
   y="72.099998"
   width="9.6999998"
   height="204.3">
		<feFlood
   result="back"
   id="feFlood3119" />
		<feBlend
   in="SourceGraphic"
   in2="back"
   mode="normal"
   id="feBlend3121" />
	</filter>
</defs>
<mask
   maskUnits="userSpaceOnUse"
   x="438.4"
   y="72.1"
   width="9.7"
   height="204.3"
   id="mask3147">
	<g
   class="st82"
   id="g3145">
		<defs
   id="defs3131">
			<filter
   id="Adobe_OpacityMaskFilter_5_"
   filterUnits="userSpaceOnUse"
   x="438.39999"
   y="72.099998"
   width="9.6999998"
   height="204.3">
				<feFlood
   result="back"
   id="feFlood3126" />
				<feBlend
   in="SourceGraphic"
   in2="back"
   mode="normal"
   id="feBlend3128" />
			</filter>
		</defs>
		<mask
   maskUnits="userSpaceOnUse"
   x="438.4"
   y="72.1"
   width="9.7"
   height="204.3"
   id="SVGID_75_">
			<g
   class="st83"
   id="g3133">
			</g>
		</mask>
		
			<radialGradient
   id="SVGID_76_"
   cx="423.31812"
   cy="446.84531"
   r="72.300903"
   gradientTransform="matrix(1.108,0.0122,-0.0156,0.9999,-18.8192,-277.675)"
   gradientUnits="userSpaceOnUse">
			<stop
   offset="0.2507"
   style="stop-color:#FFFFFF"
   id="stop3136" />
			<stop
   offset="0.5928"
   style="stop-color:#FFFFFF"
   id="stop3138" />
			<stop
   offset="1"
   style="stop-color:#000000"
   id="stop3140" />
		</radialGradient>
		<path
   class="st84"
   d="m 444.2,175.2 c -0.5,-34.3 2.3,-68.6 3.9,-102.8 0,-0.8 -1,0.1 -1,0.5 -2.9,16.9 -3.6,34 -4.4,51.1 -0.8,16.7 -1.9,33.2 -1.6,49.9 0.2,17.4 -0.2,34.7 -1.5,52.1 -0.6,8.1 -0.6,16.2 -0.4,24.3 0.2,8.5 -0.3,16.9 -0.8,25.3 -0.1,1.8 2.2,-0.1 2.4,-0.9 1.9,-7.5 1.7,-15.5 1.6,-23.2 -0.1,-8.6 -0.5,-17.3 0.2,-25.9 1.3,-16.7 1.8,-33.5 1.6,-50.4 z"
   mask="url(#SVGID_75_)"
   id="path3143" />
	</g>
</mask>
<radialGradient
   id="SVGID_77_"
   cx="423.31812"
   cy="446.84531"
   r="72.300903"
   gradientTransform="matrix(1.108,0.0122,-0.0156,0.9999,-18.8192,-277.675)"
   gradientUnits="userSpaceOnUse">
	<stop
   offset="0.2507"
   style="stop-color:#FFFFFF"
   id="stop3149" />
	<stop
   offset="0.5928"
   style="stop-color:#E0B7AA"
   id="stop3151" />
	<stop
   offset="1"
   style="stop-color:#E0B7AA"
   id="stop3153" />
</radialGradient>

<defs
   id="defs3163">
	<filter
   id="Adobe_OpacityMaskFilter_6_"
   filterUnits="userSpaceOnUse"
   x="119.6"
   y="315.89999"
   width="248.10001"
   height="7.5">
		<feFlood
   result="back"
   id="feFlood3158" />
		<feBlend
   in="SourceGraphic"
   in2="back"
   mode="normal"
   id="feBlend3160" />
	</filter>
</defs>
<mask
   maskUnits="userSpaceOnUse"
   x="119.6"
   y="315.9"
   width="248.1"
   height="7.5"
   id="mask3186">
	<g
   class="st86"
   id="g3184">
		<defs
   id="defs3170">
			<filter
   id="Adobe_OpacityMaskFilter_7_"
   filterUnits="userSpaceOnUse"
   x="119.6"
   y="315.89999"
   width="248.10001"
   height="7.5">
				<feFlood
   result="back"
   id="feFlood3165" />
				<feBlend
   in="SourceGraphic"
   in2="back"
   mode="normal"
   id="feBlend3167" />
			</filter>
		</defs>
		<mask
   maskUnits="userSpaceOnUse"
   x="119.6"
   y="315.9"
   width="248.1"
   height="7.5"
   id="SVGID_78_">
			<g
   class="st87"
   id="g3172">
			</g>
		</mask>
		
			<radialGradient
   id="SVGID_79_"
   cx="137.86929"
   cy="598.73358"
   r="59.244999"
   gradientTransform="matrix(1.4818,-0.0121,0.0078,1,34.7002,-277.6398)"
   gradientUnits="userSpaceOnUse">
			<stop
   offset="0.2507"
   style="stop-color:#FFFFFF"
   id="stop3175" />
			<stop
   offset="0.5928"
   style="stop-color:#FFFFFF"
   id="stop3177" />
			<stop
   offset="1"
   style="stop-color:#000000"
   id="stop3179" />
		</radialGradient>
		<path
   class="st88"
   d="m 367.3,318.8 c -8.5,-2.1 -18.5,-1.8 -27.4,-1.8 -10.4,0 -20.8,-0.1 -31.2,-0.5 -21.5,-0.8 -43.9,-0.5 -65.5,0.1 -20.9,0.6 -40.4,0.6 -61.2,2.3 -20.7,1.7 -41,2.6 -61.9,2.5 -0.3,0 -0.9,0.6 -0.5,0.7 19.1,3 39.7,0.8 58.9,-0.7 20.7,-1.5 41.2,-1.9 62,-2.4 20.8,-0.5 41.4,-0.4 62.2,0.5 10.4,0.5 20.8,0.9 31.2,0.8 10.4,0 20.9,0.9 31.3,0.9 1.2,0.1 3.5,-2.1 2.1,-2.4 z"
   mask="url(#SVGID_78_)"
   id="path3182" />
	</g>
</mask>
<radialGradient
   id="SVGID_80_"
   cx="137.86929"
   cy="598.73358"
   r="59.244999"
   gradientTransform="matrix(1.4818,-0.0121,0.0078,1,34.7002,-277.6398)"
   gradientUnits="userSpaceOnUse">
	<stop
   offset="0.2507"
   style="stop-color:#FFFFFF"
   id="stop3188" />
	<stop
   offset="0.5928"
   style="stop-color:#E0B7AA"
   id="stop3190" />
	<stop
   offset="1"
   style="stop-color:#E0B7AA"
   id="stop3192" />
</radialGradient>



</svg>
